<svg xmlns="http://www.w3.org/2000/svg" xmlns:xlink="http://www.w3.org/1999/xlink" width="1024" zoomAndPan="magnify" viewBox="0 0 768 767.999994" height="1024" preserveAspectRatio="xMidYMid meet" version="1.0"><defs><clipPath id="59f712fbf9"><path d="M 194 183.988281 L 575 183.988281 L 575 583.738281 L 194 583.738281 Z M 194 183.988281 " clip-rule="nonzero"/></clipPath></defs><g clip-path="url(#59f712fbf9)"><path fill="#e1eaeb" d="M 564.097656 479.714844 L 551.628906 479.714844 C 550.292969 479.714844 549.042969 480.367188 548.285156 481.460938 C 540.167969 493.109375 530.515625 504.191406 519.59375 514.394531 C 508.695312 524.601562 496.472656 533.609375 483.257812 541.195312 C 470.066406 548.75 455.886719 554.722656 441.101562 558.957031 C 426.34375 563.164062 410.679688 565.292969 394.5625 565.292969 C 370.234375 565.292969 346.820312 561.371094 324.972656 553.605469 C 303.222656 545.894531 283.839844 534.246094 267.34375 518.980469 C 250.863281 503.742188 237.621094 484.527344 227.980469 461.882812 C 218.3125 439.21875 213.410156 412.515625 213.410156 382.511719 C 213.410156 357.523438 218.035156 333.902344 227.171875 312.316406 C 236.292969 290.730469 249.117188 271.574219 265.292969 255.390625 C 281.449219 239.238281 300.789062 226.324219 322.769531 216.996094 C 344.722656 207.6875 368.878906 202.964844 394.5625 202.964844 C 417.429688 202.964844 439 206.613281 458.691406 213.816406 C 478.3125 221.003906 495.445312 231.210938 509.617188 244.140625 C 523.738281 257.054688 534.980469 272.816406 543.023438 290.984375 C 551.058594 309.160156 555.128906 329.375 555.128906 351.078125 C 555.128906 370.3125 551.769531 388.492188 545.128906 405.085938 C 538.453125 421.777344 530.011719 436.347656 520.042969 448.414062 C 510.113281 460.4375 499.089844 470.054688 487.269531 477.023438 C 475.710938 483.828125 464.558594 487.277344 454.132812 487.277344 C 447.921875 487.277344 443.347656 486.0625 440.53125 483.664062 C 437.675781 481.242188 436.011719 478 435.433594 473.742188 C 434.78125 469.050781 435.292969 463.382812 436.96875 456.90625 C 438.710938 450.09375 441.210938 442.710938 444.40625 434.886719 L 504.523438 278.902344 C 505.007812 277.652344 504.84375 276.234375 504.074219 275.125 C 503.308594 274.015625 502.054688 273.355469 500.714844 273.355469 L 489.335938 273.355469 C 487.621094 273.355469 486.085938 274.429688 485.5 276.039062 L 475.613281 303.230469 C 470.054688 291.921875 461.375 282.71875 449.710938 275.816406 C 435.402344 267.351562 419.027344 263.058594 401.054688 263.058594 C 381.230469 263.058594 362.824219 268.289062 346.355469 278.582031 C 330.078125 288.757812 316.023438 301.964844 304.585938 317.839844 C 293.203125 333.625 284.269531 351.019531 278.027344 369.5625 C 271.78125 388.105469 268.605469 406.316406 268.605469 423.667969 C 268.605469 434.976562 270.613281 445.785156 274.578125 455.789062 C 278.542969 465.789062 284.007812 474.601562 290.8125 481.957031 C 297.648438 489.375 305.929688 495.347656 315.394531 499.695312 C 336.15625 509.246094 361.429688 507.859375 386.394531 499.304688 C 397.488281 495.507812 407.628906 488.582031 416.644531 478.65625 C 417.445312 485.207031 420.226562 490.882812 424.972656 495.625 C 432.054688 502.703125 441.496094 506.292969 453.046875 506.292969 C 466.703125 506.292969 480.964844 502.101562 495.421875 493.851562 C 509.6875 485.703125 522.824219 474.453125 534.449219 460.414062 C 546.023438 446.445312 555.636719 429.949219 562.996094 411.375 C 570.378906 392.757812 574.113281 372.476562 574.113281 351.101562 C 574.113281 325.738281 569.339844 302.382812 559.933594 281.707031 C 550.535156 261.058594 537.53125 243.285156 521.289062 228.890625 C 505.070312 214.527344 485.851562 203.324219 464.167969 195.597656 C 442.515625 187.898438 419.09375 183.988281 394.5625 183.988281 C 367.433594 183.988281 341.402344 189.015625 317.1875 198.917969 C 293 208.816406 271.519531 222.765625 253.335938 240.378906 C 235.167969 258 220.652344 279.121094 210.1875 303.164062 C 199.71875 327.214844 194.40625 353.917969 194.40625 382.519531 C 194.40625 417.238281 200.273438 447.695312 211.84375 473.042969 C 223.410156 498.363281 238.789062 519.519531 257.550781 535.890625 C 276.308594 552.25 297.925781 564.460938 321.804688 572.171875 C 345.554688 579.847656 370.027344 583.738281 394.550781 583.738281 C 411.441406 583.738281 428.480469 581.414062 445.191406 576.828125 C 461.832031 572.253906 477.894531 565.667969 492.957031 557.226562 C 507.949219 548.816406 522.066406 538.40625 534.921875 526.304688 C 547.78125 514.175781 558.769531 500.574219 567.578125 485.890625 C 568.339844 484.632812 568.355469 483.058594 567.628906 481.789062 C 566.917969 480.507812 565.5625 479.714844 564.097656 479.714844 Z M 466.101562 326.519531 L 428.140625 424.902344 C 423.238281 437.503906 417.519531 447.996094 411.136719 456.089844 C 404.742188 464.199219 398.042969 470.652344 391.214844 475.277344 C 384.421875 479.863281 377.304688 483.027344 370.085938 484.699219 C 353.363281 488.609375 337.296875 488.183594 324.15625 482.488281 C 316.757812 479.289062 310.285156 474.789062 304.925781 469.078125 C 299.535156 463.359375 295.25 456.59375 292.207031 448.96875 C 289.164062 441.363281 287.625 432.855469 287.625 423.660156 C 287.625 408.984375 290.378906 393.207031 295.8125 376.742188 C 301.253906 360.238281 308.996094 344.730469 318.835938 330.683594 C 328.617188 316.707031 340.5625 304.941406 354.324219 295.707031 C 367.851562 286.644531 382.84375 282.042969 398.910156 282.042969 C 405.445312 282.042969 412.335938 282.835938 419.417969 284.382812 C 426.386719 285.917969 433.117188 288.511719 439.40625 292.070312 C 445.613281 295.601562 451.152344 300.292969 455.878906 306.011719 C 460.300781 311.414062 463.734375 318.304688 466.101562 326.519531 Z M 466.101562 326.519531 " fill-opacity="1" fill-rule="nonzero"/></g></svg>