<svg width="245" height="245" viewBox="0 0 245 245" fill="none" xmlns="http://www.w3.org/2000/svg">
<path d="M30.91 5.08815L122.5 96.6749L213.713 5.46505C216.943 2.02772 221.434 0.0546505 226.151 0C236.56 0 244.997 8.43691 244.997 18.845C245.086 23.5148 243.244 28.015 239.909 31.2827L147.753 122.493L239.909 214.645C243.014 217.682 244.837 221.798 244.997 226.14C244.997 236.548 236.56 244.985 226.151 244.985C221.295 245.187 216.578 243.34 213.148 239.897L122.5 148.31L31.0984 239.708C27.8815 243.031 23.4716 244.93 18.8487 244.985C8.44027 244.985 0.00305436 236.548 0.00305436 226.14C-0.0855204 221.47 1.7557 216.97 5.09139 213.702L97.2468 122.493L5.09139 30.3405C1.98562 27.3026 0.163243 23.1869 0.00305436 18.845C0.00305436 8.43691 8.44027 0 18.8487 0C23.3792 0.0546505 27.7081 1.88073 30.91 5.08815Z" fill="#FFE5E5"/>
</svg>
