<svg xmlns="http://www.w3.org/2000/svg" xmlns:xlink="http://www.w3.org/1999/xlink" width="1024" zoomAndPan="magnify" viewBox="0 0 768 767.999994" height="1024" preserveAspectRatio="xMidYMid meet" version="1.0"><defs><clipPath id="8315e9e387"><path d="M 53.335938 47 L 714.835938 47 L 714.835938 688 L 53.335938 688 Z M 53.335938 47 " clip-rule="nonzero"/></clipPath></defs><g clip-path="url(#8315e9e387)"><path fill="#e7e2ae" d="M 384.085938 47.226562 C 202.175781 47.226562 53.335938 196.023438 53.335938 377.882812 C 53.335938 518.414062 141.535156 638.277344 264.191406 686.496094 C 276.59375 683.742188 287.617188 672.71875 287.617188 658.941406 L 287.617188 598.320312 L 251.785156 598.320312 C 225.601562 598.320312 203.550781 585.921875 192.527344 566.632812 C 189.769531 561.125 187.015625 554.234375 184.257812 547.347656 C 178.746094 532.191406 171.855469 515.65625 158.074219 506.015625 C 152.5625 501.878906 149.804688 493.613281 151.183594 486.726562 C 153.941406 479.835938 160.832031 474.324219 173.234375 475.703125 C 187.015625 477.082031 207.6875 492.238281 220.089844 508.769531 C 231.113281 522.546875 239.382812 530.8125 255.921875 530.8125 L 260.054688 530.8125 C 272.457031 530.8125 302.777344 530.8125 308.289062 525.300781 C 312.425781 519.792969 315.179688 515.65625 319.316406 511.523438 C 236.628906 494.992188 189.769531 446.769531 189.769531 373.75 C 189.769531 348.953125 196.660156 324.152344 211.820312 302.109375 C 206.308594 281.441406 193.90625 227.710938 220.089844 204.289062 L 224.222656 200.15625 L 229.738281 200.15625 C 265.566406 200.15625 291.753906 215.3125 308.289062 227.710938 C 356.523438 209.800781 411.648438 209.800781 459.882812 227.710938 C 475.042969 215.3125 501.226562 200.15625 538.4375 200.15625 L 543.949219 200.15625 L 548.082031 204.289062 C 574.269531 229.089844 561.863281 281.441406 556.351562 302.109375 C 570.132812 324.152344 578.402344 348.953125 578.402344 373.75 C 578.402344 446.769531 531.546875 494.992188 450.238281 511.523438 C 470.910156 533.570312 481.933594 566.632812 481.933594 592.8125 L 481.933594 660.320312 C 481.933594 674.097656 491.582031 685.121094 505.363281 687.875 C 626.636719 638.277344 714.835938 518.414062 714.835938 377.882812 C 714.835938 196.023438 566 47.226562 384.085938 47.226562 Z M 384.085938 47.226562 " fill-opacity="1" fill-rule="nonzero"/></g></svg>