<svg xmlns="http://www.w3.org/2000/svg" xmlns:xlink="http://www.w3.org/1999/xlink" width="1024" zoomAndPan="magnify" viewBox="0 0 768 767.999994" height="1024" preserveAspectRatio="xMidYMid meet" version="1.0"><defs><clipPath id="ba5f5b3d58"><path d="M 93.808594 94.667969 L 705.808594 94.667969 L 705.808594 706.667969 L 93.808594 706.667969 Z M 93.808594 94.667969 " clip-rule="nonzero"/></clipPath></defs><g clip-path="url(#ba5f5b3d58)"><path fill="#e1eaeb" d="M 660.484375 94.6875 L 138.984375 94.6875 C 114.082031 94.6875 93.808594 114.445312 93.808594 138.769531 L 93.808594 662.488281 C 93.808594 686.875 114.082031 706.667969 138.984375 706.667969 L 660.519531 706.667969 C 685.480469 706.667969 705.808594 686.875 705.808594 662.488281 L 705.808594 138.769531 C 705.808594 114.445312 685.480469 94.6875 660.484375 94.6875 Z M 660.484375 94.6875 " fill-opacity="1" fill-rule="nonzero"/></g><path fill="#475695" d="M 184.558594 324.109375 L 275.496094 324.109375 L 275.496094 616.148438 L 184.558594 616.148438 Z M 229.960938 178.761719 C 258.972656 178.761719 282.554688 202.34375 282.554688 231.355469 C 282.554688 260.367188 258.972656 284.007812 229.980469 284.007812 C 228.253906 284.003906 226.535156 283.914062 224.820312 283.742188 C 223.105469 283.570312 221.402344 283.3125 219.714844 282.976562 C 218.023438 282.636719 216.355469 282.214844 214.707031 281.714844 C 213.058594 281.210938 211.4375 280.628906 209.84375 279.96875 C 208.253906 279.308594 206.699219 278.570312 205.179688 277.753906 C 203.660156 276.941406 202.183594 276.054688 200.75 275.097656 C 199.316406 274.140625 197.933594 273.113281 196.601562 272.019531 C 195.269531 270.925781 193.996094 269.769531 192.777344 268.550781 C 191.558594 267.332031 190.402344 266.058594 189.304688 264.726562 C 188.210938 263.394531 187.1875 262.011719 186.226562 260.582031 C 185.269531 259.148438 184.382812 257.671875 183.566406 256.152344 C 182.753906 254.632812 182.015625 253.078125 181.355469 251.488281 C 180.691406 249.894531 180.109375 248.277344 179.605469 246.628906 C 179.105469 244.980469 178.683594 243.308594 178.34375 241.621094 C 178.003906 239.929688 177.746094 238.226562 177.574219 236.511719 C 177.402344 234.796875 177.3125 233.078125 177.308594 231.355469 C 177.308594 229.632812 177.394531 227.910156 177.5625 226.195312 C 177.730469 224.480469 177.984375 222.777344 178.320312 221.085938 C 178.65625 219.398438 179.078125 217.726562 179.578125 216.078125 C 180.078125 214.429688 180.65625 212.808594 181.316406 211.214844 C 181.976562 209.621094 182.714844 208.066406 183.527344 206.546875 C 184.339844 205.027344 185.226562 203.550781 186.183594 202.117188 C 187.144531 200.683594 188.167969 199.300781 189.261719 197.96875 C 190.359375 196.636719 191.515625 195.363281 192.734375 194.144531 C 193.953125 192.925781 195.230469 191.773438 196.5625 190.679688 C 197.894531 189.585938 199.28125 188.5625 200.714844 187.605469 C 202.148438 186.648438 203.625 185.765625 205.144531 184.953125 C 206.664062 184.140625 208.222656 183.40625 209.816406 182.75 C 211.410156 182.089844 213.03125 181.511719 214.679688 181.011719 C 216.332031 180.511719 218 180.097656 219.691406 179.761719 C 221.382812 179.425781 223.085938 179.175781 224.800781 179.007812 C 226.515625 178.84375 228.238281 178.757812 229.960938 178.761719 M 332.277344 324.109375 L 419.335938 324.109375 L 419.335938 364.023438 L 420.539062 364.023438 C 432.667969 341.074219 462.273438 316.863281 506.601562 316.863281 C 598.519531 316.863281 615.480469 377.355469 615.480469 455.976562 L 615.480469 616.167969 L 524.773438 616.167969 L 524.773438 474.109375 C 524.773438 440.257812 524.160156 396.652344 477.609375 396.652344 C 430.371094 396.652344 423.105469 433.5625 423.105469 471.621094 L 423.105469 616.09375 L 332.414062 616.09375 L 332.414062 324.054688 Z M 332.277344 324.109375 " fill-opacity="1" fill-rule="nonzero"/></svg>