<svg xmlns="http://www.w3.org/2000/svg" xmlns:xlink="http://www.w3.org/1999/xlink" width="1024" zoomAndPan="magnify" viewBox="0 0 768 767.999994" height="1024" preserveAspectRatio="xMidYMid meet" version="1.0"><defs><clipPath id="e66d1098b9"><path d="M 288 162.050781 L 506 162.050781 L 506 475 L 288 475 Z M 288 162.050781 " clip-rule="nonzero"/></clipPath><clipPath id="ac73ea6c02"><path d="M 196.105469 367 L 595.855469 367 L 595.855469 561.800781 L 196.105469 561.800781 Z M 196.105469 367 " clip-rule="nonzero"/></clipPath></defs><g clip-path="url(#e66d1098b9)"><path fill="#e1eaeb" d="M 396.898438 181.089844 C 446.171875 181.089844 486.261719 221.128906 486.261719 270.34375 C 486.261719 309 427.585938 402.921875 396.898438 447.871094 C 366.214844 402.929688 307.539062 309.019531 307.539062 270.34375 C 307.539062 221.128906 347.625 181.089844 396.898438 181.089844 Z M 389.121094 470.070312 C 390.90625 472.589844 393.808594 474.089844 396.898438 474.089844 C 399.992188 474.089844 402.894531 472.589844 404.679688 470.070312 C 404.929688 469.714844 429.910156 434.355469 454.546875 392.769531 C 488.238281 335.890625 505.320312 294.703125 505.320312 270.34375 C 505.320312 210.632812 456.683594 162.054688 396.898438 162.054688 C 337.117188 162.054688 288.480469 210.632812 288.480469 270.34375 C 288.480469 294.703125 305.5625 335.890625 339.253906 392.769531 C 363.886719 434.355469 388.867188 469.714844 389.121094 470.070312 " fill-opacity="1" fill-rule="nonzero"/></g><path fill="#e1eaeb" d="M 367.34375 270.34375 C 367.34375 254.058594 380.605469 240.808594 396.898438 240.808594 C 413.199219 240.808594 426.457031 254.058594 426.457031 270.34375 C 426.457031 286.628906 413.199219 299.875 396.898438 299.875 C 380.605469 299.875 367.34375 286.628906 367.34375 270.34375 Z M 445.515625 270.34375 C 445.515625 243.5625 423.703125 221.773438 396.898438 221.773438 C 370.09375 221.773438 348.285156 243.5625 348.285156 270.34375 C 348.285156 297.125 370.09375 318.910156 396.898438 318.910156 C 423.703125 318.910156 445.515625 297.125 445.515625 270.34375 " fill-opacity="1" fill-rule="nonzero"/><g clip-path="url(#ac73ea6c02)"><path fill="#e1eaeb" d="M 594.769531 549.730469 L 546.003906 374.347656 C 544.859375 370.226562 541.101562 367.378906 536.824219 367.378906 L 503.335938 367.378906 C 498.074219 367.378906 493.804688 371.636719 493.804688 376.894531 C 493.804688 382.148438 498.074219 386.414062 503.335938 386.414062 L 529.578125 386.414062 L 573.050781 542.757812 L 218.914062 542.757812 L 262.394531 386.414062 L 290.464844 386.414062 C 295.730469 386.414062 299.992188 382.148438 299.992188 376.894531 C 299.992188 371.636719 295.730469 367.378906 290.464844 367.378906 L 255.148438 367.378906 C 250.871094 367.378906 247.117188 370.226562 245.972656 374.34375 L 197.195312 549.730469 C 196.398438 552.59375 196.984375 555.667969 198.789062 558.035156 C 200.589844 560.402344 203.398438 561.792969 206.375 561.792969 L 585.585938 561.792969 C 588.566406 561.792969 591.371094 560.402344 593.175781 558.035156 C 594.972656 555.667969 595.566406 552.59375 594.769531 549.730469 " fill-opacity="1" fill-rule="nonzero"/></g></svg>