<svg xmlns="http://www.w3.org/2000/svg" xmlns:xlink="http://www.w3.org/1999/xlink" width="1024" zoomAndPan="magnify" viewBox="0 0 768 767.999994" height="1024" preserveAspectRatio="xMidYMid meet" version="1.0"><path fill="#e1eaeb" d="M 517.832031 250.636719 C 444.003906 176.808594 323.960938 176.808594 250.335938 250.636719 C 186.914062 314.058594 176.707031 413.09375 225.328125 487.722656 L 193.316406 565.148438 C 192.113281 567.949219 192.914062 571.152344 194.914062 573.152344 C 196.316406 574.550781 198.316406 575.351562 200.117188 575.351562 C 201.117188 575.351562 202.117188 575.152344 202.917969 574.753906 L 280.347656 542.742188 C 354.972656 591.359375 454.007812 581.355469 517.433594 517.933594 C 591.457031 444.503906 591.457031 324.460938 517.832031 250.636719 Z M 507.226562 507.730469 C 448.007812 566.949219 354.773438 575.753906 285.75 528.535156 C 284.546875 527.734375 282.945312 527.335938 281.546875 527.335938 C 280.546875 527.335938 279.546875 527.535156 278.746094 527.9375 L 214.121094 554.546875 L 240.730469 489.921875 C 241.730469 487.519531 241.332031 484.921875 239.929688 482.917969 C 192.714844 413.695312 201.316406 320.460938 260.738281 261.238281 C 328.765625 193.214844 439.402344 193.214844 507.226562 261.238281 C 575.253906 329.265625 575.253906 439.902344 507.226562 507.730469 Z M 507.226562 507.730469 " fill-opacity="1" fill-rule="nonzero"/><path fill="#e1eaeb" d="M 469.613281 418.097656 C 461.011719 409.492188 446.804688 409.492188 438.203125 418.097656 L 430.402344 425.898438 C 426.199219 429.300781 407.59375 430.300781 372.578125 395.289062 C 337.566406 360.273438 338.566406 341.667969 341.566406 337.667969 L 349.570312 329.664062 C 353.773438 325.460938 356.171875 319.859375 356.171875 313.859375 C 356.171875 307.855469 353.773438 302.253906 349.570312 298.050781 L 331.164062 279.644531 C 323.160156 271.644531 310.558594 270.84375 301.554688 278.046875 C 291.550781 286.25 279.347656 300.652344 278.34375 323.0625 C 276.746094 353.671875 296.550781 389.886719 337.367188 430.5 C 376.582031 469.714844 411.59375 489.523438 441.40625 489.523438 C 442.605469 489.523438 443.804688 489.523438 445.003906 489.320312 C 467.414062 488.121094 481.617188 475.917969 489.621094 465.914062 C 496.625 457.109375 495.824219 444.503906 488.019531 436.703125 C 482.621094 431.300781 475.417969 424.097656 469.613281 418.097656 Z M 478.019531 456.710938 C 471.816406 464.3125 461.011719 473.714844 444.207031 474.515625 C 418.394531 475.917969 384.984375 457.109375 347.769531 419.898438 C 310.757812 382.882812 291.75 349.472656 293.152344 323.660156 C 293.949219 306.65625 303.355469 295.652344 310.957031 289.648438 C 312.359375 288.648438 313.957031 288.050781 315.558594 288.050781 C 317.558594 288.050781 319.359375 288.847656 320.761719 290.25 L 339.167969 308.65625 C 341.96875 311.457031 341.96875 316.257812 339.167969 319.058594 L 331.164062 327.0625 C 328.765625 329.464844 308.957031 352.472656 362.175781 405.691406 C 415.394531 458.910156 438.203125 439.105469 440.804688 436.703125 L 448.808594 428.699219 C 451.609375 425.898438 456.410156 425.898438 459.210938 428.699219 C 465.011719 434.503906 472.214844 441.503906 477.417969 447.308594 C 480.019531 449.90625 480.21875 453.910156 478.019531 456.710938 Z M 478.019531 456.710938 " fill-opacity="1" fill-rule="nonzero"/></svg>