<svg xmlns="http://www.w3.org/2000/svg" xmlns:xlink="http://www.w3.org/1999/xlink" width="1024" zoomAndPan="magnify" viewBox="0 0 768 767.999994" height="1024" preserveAspectRatio="xMidYMid meet" version="1.0"><defs><clipPath id="446e8e2543"><path d="M 77 52 L 716.550781 52 L 716.550781 691 L 77 691 Z M 77 52 " clip-rule="nonzero"/></clipPath></defs><path fill="#e1eaeb" d="M 397.132812 61.125 C 225.757812 61.125 86.839844 200.046875 86.839844 371.417969 C 86.839844 427.199219 101.632812 479.5 127.394531 524.730469 L 87.175781 670.140625 C 85.289062 676.972656 91.566406 683.261719 98.402344 681.363281 L 243.808594 641.144531 C 289.050781 666.917969 341.351562 681.710938 397.132812 681.710938 C 568.503906 681.710938 707.421875 542.792969 707.421875 371.417969 C 707.421875 200.046875 568.503906 61.125 397.132812 61.125 Z M 397.132812 61.125 " fill-opacity="1" fill-rule="nonzero"/><path fill="#4d5f61" d="M 397.132812 115.882812 C 256.003906 115.882812 141.597656 230.289062 141.597656 371.417969 C 141.597656 427.289062 159.574219 478.925781 189.992188 520.980469 L 167.972656 600.578125 L 247.578125 578.558594 C 289.632812 608.976562 341.269531 626.953125 397.132812 626.953125 C 538.257812 626.953125 652.667969 512.546875 652.667969 371.417969 C 652.667969 230.289062 538.257812 115.882812 397.132812 115.882812 Z M 397.132812 115.882812 " fill-opacity="1" fill-rule="nonzero"/><path fill="#e1eaeb" d="M 323.171875 243.1875 C 317.625 230.636719 311.765625 230.390625 306.453125 230.207031 C 302.117188 230.027344 297.179688 230.027344 292.234375 230.027344 C 287.351562 230.027344 279.300781 231.878906 272.53125 239.417969 C 265.695312 246.890625 246.539062 265.0625 246.539062 302.023438 C 246.539062 338.921875 273.140625 374.640625 276.800781 379.640625 C 280.523438 384.589844 328.109375 462.828125 403.390625 492.925781 C 465.988281 517.894531 478.738281 512.949219 492.28125 511.714844 C 505.890625 510.421875 536.152344 493.546875 542.3125 475.996094 C 548.472656 458.511719 548.472656 443.488281 546.648438 440.339844 C 544.8125 437.191406 539.875 435.328125 532.429688 431.5625 C 525.042969 427.792969 488.621094 409.683594 481.785156 407.148438 C 475.015625 404.675781 470.066406 403.441406 465.132812 410.917969 C 460.195312 418.390625 445.976562 435.328125 441.640625 440.332031 C 437.304688 445.339844 433.035156 445.953125 425.597656 442.246094 C 418.214844 438.476562 394.355469 430.566406 366.046875 404.984375 C 344.027344 385.089844 329.140625 360.550781 324.804688 353.011719 C 320.472656 345.535156 324.320312 341.457031 328.035156 337.6875 C 331.394531 334.347656 335.484375 328.910156 339.199219 324.527344 C 342.859375 320.136719 344.082031 317.054688 346.582031 312.042969 C 349.019531 307.03125 347.804688 302.652344 345.96875 298.882812 C 344.164062 295.097656 329.761719 258.015625 323.171875 243.1875 Z M 323.171875 243.1875 " fill-opacity="1" fill-rule="nonzero"/><g clip-path="url(#446e8e2543)"><path fill="#200a29" d="M 95.882812 690.847656 C 91.128906 690.847656 86.566406 688.984375 83.070312 685.480469 C 78.351562 680.769531 76.609375 674.128906 78.378906 667.710938 L 117.601562 525.925781 C 91.492188 478.78125 77.710938 425.4375 77.710938 371.417969 C 77.710938 195.292969 221.003906 52 397.132812 52 C 573.257812 52 716.550781 195.292969 716.550781 371.417969 C 716.550781 547.546875 573.257812 690.835938 397.132812 690.835938 C 343.113281 690.835938 289.769531 677.058594 242.625 650.945312 L 100.839844 690.171875 C 99.195312 690.628906 97.527344 690.847656 95.882812 690.847656 Z M 243.820312 632.027344 C 245.390625 632.027344 246.949219 632.429688 248.335938 633.222656 C 293.539062 658.976562 344.992188 672.585938 397.132812 672.585938 C 563.191406 672.585938 698.296875 537.480469 698.296875 371.417969 C 698.296875 205.359375 563.191406 70.253906 397.132812 70.253906 C 231.070312 70.253906 95.964844 205.359375 95.964844 371.417969 C 95.964844 423.558594 109.574219 475.011719 135.328125 520.214844 C 136.53125 522.320312 136.839844 524.820312 136.195312 527.167969 L 95.972656 672.585938 L 241.390625 632.367188 C 242.1875 632.128906 243.007812 632.027344 243.820312 632.027344 Z M 243.820312 632.027344 " fill-opacity="1" fill-rule="nonzero"/></g><path fill="#200a29" d="M 477.148438 517.511719 C 464.265625 517.511719 444.203125 514.109375 401.710938 497.167969 C 356.191406 478.972656 311.089844 439.027344 274.738281 384.707031 C 273.953125 383.546875 273.433594 382.753906 273.160156 382.386719 C 263.625 369.355469 241.984375 336.128906 241.984375 302.023438 C 241.984375 265.5 260.089844 246.078125 267.832031 237.78125 L 269.164062 236.339844 C 277.980469 226.519531 288.238281 225.460938 292.234375 225.460938 C 297.253906 225.460938 302.253906 225.460938 306.644531 225.652344 C 313.691406 225.902344 321.128906 227.324219 327.34375 241.351562 C 331.25 250.140625 337.746094 266.367188 342.96875 279.398438 C 346.28125 287.667969 349.410156 295.480469 350.09375 296.894531 C 352.011719 300.855469 354.15625 306.941406 350.695312 314.042969 L 349.574219 316.332031 C 347.65625 320.257812 346.144531 323.359375 342.710938 327.457031 C 341.480469 328.910156 340.238281 330.449219 338.980469 331.992188 C 336.378906 335.207031 333.6875 338.527344 331.257812 340.929688 C 327.609375 344.632812 326.210938 346.332031 328.765625 350.730469 C 333.949219 359.753906 348.242188 382.753906 369.113281 401.597656 C 392.183594 422.453125 411.886719 431.140625 422.476562 435.804688 C 424.648438 436.753906 426.398438 437.539062 427.675781 438.195312 C 433.890625 441.296875 435.644531 440.304688 438.199219 437.355469 C 442.726562 432.117188 456.632812 415.515625 461.324219 408.40625 C 468.554688 397.457031 477.460938 400.722656 483.347656 402.867188 C 490.8125 405.632812 528.703125 424.542969 534.5 427.5 L 538.535156 429.5 C 544.265625 432.300781 548.40625 434.316406 550.582031 438.050781 C 553.554688 443.1875 552.671875 460.28125 546.601562 477.519531 C 539.546875 497.597656 506.964844 514.910156 492.703125 516.269531 C 491.414062 516.390625 490.164062 516.527344 488.867188 516.691406 C 485.4375 517.074219 481.742188 517.511719 477.148438 517.511719 Z M 292.507812 234.578125 C 290.21875 234.578125 282.769531 234.84375 275.933594 242.457031 L 274.511719 243.996094 C 266.910156 252.148438 251.109375 269.09375 251.109375 302.023438 C 251.109375 333.433594 271.519531 364.691406 280.289062 376.683594 C 280.773438 377.324219 281.402344 378.253906 282.324219 379.625 C 317.660156 432.4375 361.265625 471.167969 405.097656 488.691406 C 460.566406 510.8125 475.679688 509.035156 487.820312 507.609375 C 489.1875 507.4375 490.527344 507.289062 491.871094 507.164062 C 503.660156 506.039062 532.484375 490.195312 538.011719 474.472656 C 543.707031 458.300781 543.625 444.867188 542.640625 442.492188 C 541.929688 441.289062 538.515625 439.617188 534.546875 437.695312 L 530.375 435.621094 C 521.757812 431.222656 486.53125 413.753906 480.207031 411.417969 C 473.628906 409.027344 471.921875 408.9375 468.945312 413.425781 C 463.617188 421.503906 448.558594 439.335938 445.109375 443.316406 C 437.734375 451.828125 429.710938 449.402344 423.578125 446.328125 C 422.367188 445.714844 420.769531 445.011719 418.804688 444.144531 C 408.539062 439.617188 387.175781 430.210938 363.015625 408.363281 C 341.167969 388.628906 326.273438 364.664062 320.882812 355.285156 C 314.75 344.695312 321.300781 338.042969 324.816406 334.484375 C 326.996094 332.3125 329.460938 329.265625 331.914062 326.234375 C 333.210938 324.636719 334.496094 323.039062 335.75 321.570312 C 338.449219 318.339844 339.625 315.941406 341.398438 312.308594 L 342.539062 309.988281 C 343.878906 307.234375 343.695312 304.570312 341.898438 300.855469 C 341.113281 299.230469 338.703125 293.242188 334.515625 282.785156 C 329.324219 269.816406 322.851562 253.679688 319.019531 245.039062 L 319.019531 245.019531 C 314.601562 235.046875 310.941406 234.925781 306.308594 234.761719 C 302.0625 234.578125 297.300781 234.578125 292.507812 234.578125 Z M 292.507812 234.578125 " fill-opacity="1" fill-rule="nonzero"/><path fill="#200a29" d="M 397.132812 626.953125 C 345.140625 626.953125 295.144531 611.402344 252.40625 581.953125 L 169.195312 604.96875 C 167.585938 605.425781 165.910156 604.960938 164.75 603.800781 C 163.589844 602.640625 163.132812 600.945312 163.582031 599.355469 L 186.589844 516.152344 C 157.148438 473.414062 141.597656 423.421875 141.597656 371.417969 C 141.597656 230.519531 256.230469 115.882812 397.132812 115.882812 C 420.621094 115.882812 444.078125 119.140625 466.820312 125.585938 C 469.246094 126.269531 470.660156 128.796875 469.976562 131.214844 C 469.292969 133.632812 466.738281 135.050781 464.347656 134.375 C 442.398438 128.160156 419.78125 125.011719 397.132812 125.011719 C 261.257812 125.011719 150.722656 235.546875 150.722656 371.417969 C 150.722656 422.25 166.128906 471.105469 195.296875 512.683594 C 196.078125 513.796875 196.316406 515.203125 195.953125 516.527344 L 174.503906 594.035156 L 252.023438 572.589844 C 253.328125 572.207031 254.742188 572.46875 255.867188 573.246094 C 297.453125 602.421875 346.308594 617.828125 397.132812 617.828125 C 533.003906 617.828125 643.539062 507.289062 643.539062 371.417969 C 643.539062 305.882812 618.085938 244.191406 571.863281 197.691406 C 570.09375 195.902344 570.09375 193.007812 571.878906 191.238281 C 573.667969 189.46875 576.5625 189.46875 578.332031 191.257812 C 626.265625 239.480469 652.667969 303.464844 652.667969 371.417969 C 652.667969 512.320312 538.03125 626.953125 397.132812 626.953125 Z M 397.132812 626.953125 " fill-opacity="1" fill-rule="nonzero"/><path fill="#200a29" d="M 520.335938 157.363281 C 519.570312 157.363281 518.800781 157.171875 518.089844 156.777344 C 509.300781 151.804688 500.257812 147.398438 491.214844 143.65625 C 488.886719 142.695312 487.78125 140.03125 488.742188 137.695312 C 489.691406 135.378906 492.371094 134.246094 494.699219 135.222656 C 504.082031 139.109375 513.472656 143.691406 522.582031 148.828125 C 524.769531 150.070312 525.546875 152.855469 524.304688 155.054688 C 523.476562 156.523438 521.921875 157.363281 520.335938 157.363281 Z M 556.839844 182.378906 C 555.820312 182.378906 554.789062 182.039062 553.9375 181.335938 C 548.289062 176.664062 542.257812 172.148438 536.015625 167.886719 C 533.933594 166.460938 533.40625 163.625 534.820312 161.542969 C 536.242188 159.460938 539.089844 158.949219 541.160156 160.347656 C 547.625 164.753906 553.882812 169.453125 559.742188 174.292969 C 561.6875 175.898438 561.960938 178.773438 560.355469 180.714844 C 559.460938 181.820312 558.15625 182.378906 556.839844 182.378906 Z M 556.839844 182.378906 " fill-opacity="1" fill-rule="nonzero"/></svg>